<mxfile host="app.diagrams.net" agent="Mozilla/5.0 (Windows NT 10.0; Win64; x64) AppleWebKit/537.36 (KHTML, like Gecko) Chrome/130.0.0.0 YaBrowser/24.12.0.0 Safari/537.36" version="25.0.3">
  <diagram id="pAnu0uEBQxlUVtfslI2k" name="Страница — 1">
    <mxGraphModel dx="1290" dy="1736" grid="1" gridSize="10" guides="1" tooltips="1" connect="1" arrows="1" fold="1" page="1" pageScale="1" pageWidth="827" pageHeight="1169" math="0" shadow="0">
      <root>
        <mxCell id="0" />
        <mxCell id="1" parent="0" />
        <mxCell id="78LkOsHNN-HIl_B3-NgD-1" style="edgeStyle=orthogonalEdgeStyle;rounded=0;orthogonalLoop=1;jettySize=auto;html=1;" parent="1" source="78LkOsHNN-HIl_B3-NgD-2" target="78LkOsHNN-HIl_B3-NgD-4" edge="1">
          <mxGeometry relative="1" as="geometry" />
        </mxCell>
        <mxCell id="78LkOsHNN-HIl_B3-NgD-2" value="Начало" style="ellipse;whiteSpace=wrap;html=1;" parent="1" vertex="1">
          <mxGeometry x="170" y="-50" width="150" height="60" as="geometry" />
        </mxCell>
        <mxCell id="4gXkacGV4kyteCz7RLPr-6" style="edgeStyle=orthogonalEdgeStyle;rounded=0;orthogonalLoop=1;jettySize=auto;html=1;" parent="1" source="78LkOsHNN-HIl_B3-NgD-4" target="4gXkacGV4kyteCz7RLPr-5" edge="1">
          <mxGeometry relative="1" as="geometry" />
        </mxCell>
        <mxCell id="78LkOsHNN-HIl_B3-NgD-4" value="Ввод rows, columns" style="shape=parallelogram;perimeter=parallelogramPerimeter;whiteSpace=wrap;html=1;fixedSize=1;" parent="1" vertex="1">
          <mxGeometry x="165" y="30" width="160" height="50" as="geometry" />
        </mxCell>
        <mxCell id="4gXkacGV4kyteCz7RLPr-22" style="edgeStyle=orthogonalEdgeStyle;rounded=0;orthogonalLoop=1;jettySize=auto;html=1;" parent="1" source="78LkOsHNN-HIl_B3-NgD-5" target="78LkOsHNN-HIl_B3-NgD-7" edge="1">
          <mxGeometry relative="1" as="geometry" />
        </mxCell>
        <mxCell id="78LkOsHNN-HIl_B3-NgD-5" value="sum := 0;&lt;div&gt;j := 1;&lt;/div&gt;" style="rounded=0;whiteSpace=wrap;html=1;" parent="1" vertex="1">
          <mxGeometry x="175" y="812" width="140" height="60" as="geometry" />
        </mxCell>
        <mxCell id="78LkOsHNN-HIl_B3-NgD-6" value="Конец" style="ellipse;whiteSpace=wrap;html=1;" parent="1" vertex="1">
          <mxGeometry x="170" y="1863" width="150" height="60" as="geometry" />
        </mxCell>
        <mxCell id="78LkOsHNN-HIl_B3-NgD-10" style="edgeStyle=orthogonalEdgeStyle;rounded=0;orthogonalLoop=1;jettySize=auto;html=1;" parent="1" source="78LkOsHNN-HIl_B3-NgD-7" target="78LkOsHNN-HIl_B3-NgD-9" edge="1">
          <mxGeometry relative="1" as="geometry" />
        </mxCell>
        <mxCell id="78LkOsHNN-HIl_B3-NgD-7" value="Цикл 1&lt;div&gt;j &amp;gt; columns&lt;/div&gt;" style="shape=loopLimit;whiteSpace=wrap;html=1;" parent="1" vertex="1">
          <mxGeometry x="175" y="893" width="140" height="60" as="geometry" />
        </mxCell>
        <mxCell id="78LkOsHNN-HIl_B3-NgD-12" style="edgeStyle=orthogonalEdgeStyle;rounded=0;orthogonalLoop=1;jettySize=auto;html=1;" parent="1" source="78LkOsHNN-HIl_B3-NgD-9" target="78LkOsHNN-HIl_B3-NgD-11" edge="1">
          <mxGeometry relative="1" as="geometry" />
        </mxCell>
        <mxCell id="78LkOsHNN-HIl_B3-NgD-9" value="max_n :=&amp;nbsp;matrix[ 1, j ];" style="rounded=0;whiteSpace=wrap;html=1;" parent="1" vertex="1">
          <mxGeometry x="175" y="983" width="140" height="60" as="geometry" />
        </mxCell>
        <mxCell id="78LkOsHNN-HIl_B3-NgD-11" value="i := 2;" style="rounded=0;whiteSpace=wrap;html=1;" parent="1" vertex="1">
          <mxGeometry x="175" y="1063" width="140" height="60" as="geometry" />
        </mxCell>
        <mxCell id="78LkOsHNN-HIl_B3-NgD-16" style="edgeStyle=orthogonalEdgeStyle;rounded=0;orthogonalLoop=1;jettySize=auto;html=1;" parent="1" source="78LkOsHNN-HIl_B3-NgD-13" target="78LkOsHNN-HIl_B3-NgD-15" edge="1">
          <mxGeometry relative="1" as="geometry" />
        </mxCell>
        <mxCell id="78LkOsHNN-HIl_B3-NgD-13" value="Цикл 1.1&lt;div&gt;i &amp;gt; rows&lt;/div&gt;" style="shape=loopLimit;whiteSpace=wrap;html=1;" parent="1" vertex="1">
          <mxGeometry x="175" y="1143" width="140" height="60" as="geometry" />
        </mxCell>
        <mxCell id="78LkOsHNN-HIl_B3-NgD-14" style="edgeStyle=orthogonalEdgeStyle;rounded=0;orthogonalLoop=1;jettySize=auto;html=1;" parent="1" source="78LkOsHNN-HIl_B3-NgD-11" target="78LkOsHNN-HIl_B3-NgD-13" edge="1">
          <mxGeometry relative="1" as="geometry" />
        </mxCell>
        <mxCell id="78LkOsHNN-HIl_B3-NgD-18" style="edgeStyle=orthogonalEdgeStyle;rounded=0;orthogonalLoop=1;jettySize=auto;html=1;" parent="1" source="78LkOsHNN-HIl_B3-NgD-15" target="78LkOsHNN-HIl_B3-NgD-17" edge="1">
          <mxGeometry relative="1" as="geometry" />
        </mxCell>
        <mxCell id="XAyofpOCQ_-r-m8X8qwo-1" style="edgeStyle=orthogonalEdgeStyle;rounded=0;orthogonalLoop=1;jettySize=auto;html=1;" parent="1" source="78LkOsHNN-HIl_B3-NgD-15" edge="1">
          <mxGeometry relative="1" as="geometry">
            <mxPoint x="245" y="1373" as="targetPoint" />
            <Array as="points">
              <mxPoint x="330" y="1253" />
              <mxPoint x="330" y="1373" />
            </Array>
          </mxGeometry>
        </mxCell>
        <mxCell id="78LkOsHNN-HIl_B3-NgD-15" value="matrix[ i, j ] &amp;gt; max_n" style="rhombus;whiteSpace=wrap;html=1;" parent="1" vertex="1">
          <mxGeometry x="175" y="1223" width="140" height="60" as="geometry" />
        </mxCell>
        <mxCell id="78LkOsHNN-HIl_B3-NgD-20" style="edgeStyle=orthogonalEdgeStyle;rounded=0;orthogonalLoop=1;jettySize=auto;html=1;" parent="1" source="78LkOsHNN-HIl_B3-NgD-17" target="78LkOsHNN-HIl_B3-NgD-19" edge="1">
          <mxGeometry relative="1" as="geometry" />
        </mxCell>
        <mxCell id="78LkOsHNN-HIl_B3-NgD-17" value="max_n := matrix[ i, j ]" style="rounded=0;whiteSpace=wrap;html=1;" parent="1" vertex="1">
          <mxGeometry x="175" y="1303" width="140" height="60" as="geometry" />
        </mxCell>
        <mxCell id="78LkOsHNN-HIl_B3-NgD-22" style="edgeStyle=orthogonalEdgeStyle;rounded=0;orthogonalLoop=1;jettySize=auto;html=1;" parent="1" source="78LkOsHNN-HIl_B3-NgD-19" target="78LkOsHNN-HIl_B3-NgD-21" edge="1">
          <mxGeometry relative="1" as="geometry" />
        </mxCell>
        <mxCell id="78LkOsHNN-HIl_B3-NgD-19" value="i += 1;" style="rounded=0;whiteSpace=wrap;html=1;" parent="1" vertex="1">
          <mxGeometry x="175" y="1393" width="140" height="60" as="geometry" />
        </mxCell>
        <mxCell id="78LkOsHNN-HIl_B3-NgD-24" style="edgeStyle=orthogonalEdgeStyle;rounded=0;orthogonalLoop=1;jettySize=auto;html=1;" parent="1" source="78LkOsHNN-HIl_B3-NgD-21" target="78LkOsHNN-HIl_B3-NgD-23" edge="1">
          <mxGeometry relative="1" as="geometry" />
        </mxCell>
        <mxCell id="78LkOsHNN-HIl_B3-NgD-21" value="Цикл 1.1" style="shape=loopLimit;whiteSpace=wrap;html=1;direction=west;" parent="1" vertex="1">
          <mxGeometry x="175" y="1473" width="140" height="60" as="geometry" />
        </mxCell>
        <mxCell id="78LkOsHNN-HIl_B3-NgD-26" style="edgeStyle=orthogonalEdgeStyle;rounded=0;orthogonalLoop=1;jettySize=auto;html=1;" parent="1" source="78LkOsHNN-HIl_B3-NgD-23" target="78LkOsHNN-HIl_B3-NgD-25" edge="1">
          <mxGeometry relative="1" as="geometry" />
        </mxCell>
        <mxCell id="78LkOsHNN-HIl_B3-NgD-23" value="sum += max_n" style="rounded=0;whiteSpace=wrap;html=1;" parent="1" vertex="1">
          <mxGeometry x="175" y="1553" width="140" height="60" as="geometry" />
        </mxCell>
        <mxCell id="78LkOsHNN-HIl_B3-NgD-28" style="edgeStyle=orthogonalEdgeStyle;rounded=0;orthogonalLoop=1;jettySize=auto;html=1;" parent="1" source="78LkOsHNN-HIl_B3-NgD-25" target="78LkOsHNN-HIl_B3-NgD-27" edge="1">
          <mxGeometry relative="1" as="geometry" />
        </mxCell>
        <mxCell id="78LkOsHNN-HIl_B3-NgD-25" value="j += 1" style="rounded=0;whiteSpace=wrap;html=1;" parent="1" vertex="1">
          <mxGeometry x="175" y="1633" width="140" height="60" as="geometry" />
        </mxCell>
        <mxCell id="78LkOsHNN-HIl_B3-NgD-30" style="edgeStyle=orthogonalEdgeStyle;rounded=0;orthogonalLoop=1;jettySize=auto;html=1;" parent="1" source="78LkOsHNN-HIl_B3-NgD-27" target="78LkOsHNN-HIl_B3-NgD-29" edge="1">
          <mxGeometry relative="1" as="geometry" />
        </mxCell>
        <mxCell id="78LkOsHNN-HIl_B3-NgD-27" value="Цикл 1" style="shape=loopLimit;whiteSpace=wrap;html=1;direction=west;" parent="1" vertex="1">
          <mxGeometry x="175" y="1713" width="140" height="60" as="geometry" />
        </mxCell>
        <mxCell id="78LkOsHNN-HIl_B3-NgD-31" style="edgeStyle=orthogonalEdgeStyle;rounded=0;orthogonalLoop=1;jettySize=auto;html=1;" parent="1" source="78LkOsHNN-HIl_B3-NgD-29" target="78LkOsHNN-HIl_B3-NgD-6" edge="1">
          <mxGeometry relative="1" as="geometry" />
        </mxCell>
        <mxCell id="78LkOsHNN-HIl_B3-NgD-29" value="Вывод sum" style="shape=parallelogram;perimeter=parallelogramPerimeter;whiteSpace=wrap;html=1;fixedSize=1;" parent="1" vertex="1">
          <mxGeometry x="165" y="1794" width="160" height="50" as="geometry" />
        </mxCell>
        <mxCell id="78LkOsHNN-HIl_B3-NgD-32" value="" style="endArrow=none;dashed=1;html=1;rounded=0;" parent="1" target="78LkOsHNN-HIl_B3-NgD-33" edge="1">
          <mxGeometry width="50" height="50" relative="1" as="geometry">
            <mxPoint x="315" y="55" as="sourcePoint" />
            <mxPoint x="390" y="60" as="targetPoint" />
          </mxGeometry>
        </mxCell>
        <mxCell id="78LkOsHNN-HIl_B3-NgD-33" value="" style="shape=partialRectangle;whiteSpace=wrap;html=1;bottom=1;right=1;left=1;top=0;fillColor=none;routingCenterX=-0.5;rotation=90;" parent="1" vertex="1">
          <mxGeometry x="348.75" y="50" width="52.5" height="10" as="geometry" />
        </mxCell>
        <mxCell id="78LkOsHNN-HIl_B3-NgD-34" value="rows - количество строк матрицы&lt;br&gt;columns - количество столбцов матрицы" style="text;html=1;align=left;verticalAlign=middle;whiteSpace=wrap;rounded=0;" parent="1" vertex="1">
          <mxGeometry x="380" y="40" width="230" height="30" as="geometry" />
        </mxCell>
        <mxCell id="78LkOsHNN-HIl_B3-NgD-39" value="" style="endArrow=none;dashed=1;html=1;rounded=0;" parent="1" target="78LkOsHNN-HIl_B3-NgD-40" edge="1">
          <mxGeometry width="50" height="50" relative="1" as="geometry">
            <mxPoint x="315" y="843" as="sourcePoint" />
            <mxPoint x="390" y="848" as="targetPoint" />
          </mxGeometry>
        </mxCell>
        <mxCell id="78LkOsHNN-HIl_B3-NgD-40" value="" style="shape=partialRectangle;whiteSpace=wrap;html=1;bottom=1;right=1;left=1;top=0;fillColor=none;routingCenterX=-0.5;rotation=90;" parent="1" vertex="1">
          <mxGeometry x="362.18" y="838" width="25.63" height="10" as="geometry" />
        </mxCell>
        <mxCell id="78LkOsHNN-HIl_B3-NgD-41" value="sum - переменная для записи суммы" style="text;html=1;align=left;verticalAlign=middle;whiteSpace=wrap;rounded=0;" parent="1" vertex="1">
          <mxGeometry x="380" y="828" width="230" height="30" as="geometry" />
        </mxCell>
        <mxCell id="78LkOsHNN-HIl_B3-NgD-43" value="" style="endArrow=none;dashed=1;html=1;rounded=0;" parent="1" target="78LkOsHNN-HIl_B3-NgD-44" edge="1">
          <mxGeometry width="50" height="50" relative="1" as="geometry">
            <mxPoint x="315" y="923" as="sourcePoint" />
            <mxPoint x="390" y="928" as="targetPoint" />
          </mxGeometry>
        </mxCell>
        <mxCell id="78LkOsHNN-HIl_B3-NgD-44" value="" style="shape=partialRectangle;whiteSpace=wrap;html=1;bottom=1;right=1;left=1;top=0;fillColor=none;routingCenterX=-0.5;rotation=90;" parent="1" vertex="1">
          <mxGeometry x="362.18" y="918" width="25.63" height="10" as="geometry" />
        </mxCell>
        <mxCell id="78LkOsHNN-HIl_B3-NgD-45" value="Перебор значений от 1 до количества столбцов матрицы" style="text;html=1;align=left;verticalAlign=middle;whiteSpace=wrap;rounded=0;" parent="1" vertex="1">
          <mxGeometry x="380" y="908" width="230" height="30" as="geometry" />
        </mxCell>
        <mxCell id="78LkOsHNN-HIl_B3-NgD-49" value="" style="endArrow=none;dashed=1;html=1;rounded=0;" parent="1" source="78LkOsHNN-HIl_B3-NgD-13" target="78LkOsHNN-HIl_B3-NgD-50" edge="1">
          <mxGeometry width="50" height="50" relative="1" as="geometry">
            <mxPoint x="310" y="1173" as="sourcePoint" />
            <mxPoint x="385" y="1178" as="targetPoint" />
          </mxGeometry>
        </mxCell>
        <mxCell id="78LkOsHNN-HIl_B3-NgD-50" value="" style="shape=partialRectangle;whiteSpace=wrap;html=1;bottom=1;right=1;left=1;top=0;fillColor=none;routingCenterX=-0.5;rotation=90;" parent="1" vertex="1">
          <mxGeometry x="357.18" y="1168" width="25.63" height="10" as="geometry" />
        </mxCell>
        <mxCell id="78LkOsHNN-HIl_B3-NgD-51" value="Перебор значений от 2 до количества строк матрицы" style="text;html=1;align=left;verticalAlign=middle;whiteSpace=wrap;rounded=0;" parent="1" vertex="1">
          <mxGeometry x="375" y="1158" width="230" height="30" as="geometry" />
        </mxCell>
        <mxCell id="78LkOsHNN-HIl_B3-NgD-59" value="" style="endArrow=none;dashed=1;html=1;rounded=0;" parent="1" target="78LkOsHNN-HIl_B3-NgD-60" edge="1">
          <mxGeometry width="50" height="50" relative="1" as="geometry">
            <mxPoint x="315" y="1008" as="sourcePoint" />
            <mxPoint x="390" y="1013" as="targetPoint" />
          </mxGeometry>
        </mxCell>
        <mxCell id="78LkOsHNN-HIl_B3-NgD-60" value="" style="shape=partialRectangle;whiteSpace=wrap;html=1;bottom=1;right=1;left=1;top=0;fillColor=none;routingCenterX=-0.5;rotation=90;" parent="1" vertex="1">
          <mxGeometry x="362.18" y="1003" width="25.63" height="10" as="geometry" />
        </mxCell>
        <mxCell id="78LkOsHNN-HIl_B3-NgD-61" value="Предполагаем, что первый элемент столбца - максимальный" style="text;html=1;align=left;verticalAlign=middle;whiteSpace=wrap;rounded=0;" parent="1" vertex="1">
          <mxGeometry x="380" y="993" width="230" height="30" as="geometry" />
        </mxCell>
        <mxCell id="78LkOsHNN-HIl_B3-NgD-62" value="" style="endArrow=none;dashed=1;html=1;rounded=0;" parent="1" target="78LkOsHNN-HIl_B3-NgD-63" edge="1">
          <mxGeometry width="50" height="50" relative="1" as="geometry">
            <mxPoint x="315" y="1333" as="sourcePoint" />
            <mxPoint x="385" y="1338" as="targetPoint" />
          </mxGeometry>
        </mxCell>
        <mxCell id="78LkOsHNN-HIl_B3-NgD-63" value="" style="shape=partialRectangle;whiteSpace=wrap;html=1;bottom=1;right=1;left=1;top=0;fillColor=none;routingCenterX=-0.5;rotation=90;" parent="1" vertex="1">
          <mxGeometry x="357.18" y="1328" width="25.63" height="10" as="geometry" />
        </mxCell>
        <mxCell id="78LkOsHNN-HIl_B3-NgD-64" value="Находим сам максимум" style="text;html=1;align=left;verticalAlign=middle;whiteSpace=wrap;rounded=0;" parent="1" vertex="1">
          <mxGeometry x="375" y="1318" width="230" height="30" as="geometry" />
        </mxCell>
        <mxCell id="78LkOsHNN-HIl_B3-NgD-65" value="" style="endArrow=none;dashed=1;html=1;rounded=0;" parent="1" target="78LkOsHNN-HIl_B3-NgD-66" edge="1">
          <mxGeometry width="50" height="50" relative="1" as="geometry">
            <mxPoint x="315" y="1583" as="sourcePoint" />
            <mxPoint x="385" y="1588" as="targetPoint" />
          </mxGeometry>
        </mxCell>
        <mxCell id="78LkOsHNN-HIl_B3-NgD-66" value="" style="shape=partialRectangle;whiteSpace=wrap;html=1;bottom=1;right=1;left=1;top=0;fillColor=none;routingCenterX=-0.5;rotation=90;" parent="1" vertex="1">
          <mxGeometry x="357.18" y="1578" width="25.63" height="10" as="geometry" />
        </mxCell>
        <mxCell id="78LkOsHNN-HIl_B3-NgD-67" value="Добавляем максимум к сумме" style="text;html=1;align=left;verticalAlign=middle;whiteSpace=wrap;rounded=0;" parent="1" vertex="1">
          <mxGeometry x="375" y="1568" width="230" height="30" as="geometry" />
        </mxCell>
        <mxCell id="78LkOsHNN-HIl_B3-NgD-71" value="" style="endArrow=none;dashed=1;html=1;rounded=0;" parent="1" target="78LkOsHNN-HIl_B3-NgD-72" edge="1">
          <mxGeometry width="50" height="50" relative="1" as="geometry">
            <mxPoint x="315" y="1818" as="sourcePoint" />
            <mxPoint x="385" y="1823" as="targetPoint" />
          </mxGeometry>
        </mxCell>
        <mxCell id="78LkOsHNN-HIl_B3-NgD-72" value="" style="shape=partialRectangle;whiteSpace=wrap;html=1;bottom=1;right=1;left=1;top=0;fillColor=none;routingCenterX=-0.5;rotation=90;" parent="1" vertex="1">
          <mxGeometry x="357.18" y="1813" width="25.63" height="10" as="geometry" />
        </mxCell>
        <mxCell id="78LkOsHNN-HIl_B3-NgD-73" value="Выводим результат" style="text;html=1;align=left;verticalAlign=middle;whiteSpace=wrap;rounded=0;" parent="1" vertex="1">
          <mxGeometry x="375" y="1803" width="230" height="30" as="geometry" />
        </mxCell>
        <mxCell id="XAyofpOCQ_-r-m8X8qwo-2" value="да" style="text;html=1;align=center;verticalAlign=middle;whiteSpace=wrap;rounded=0;" parent="1" vertex="1">
          <mxGeometry x="220" y="1273" width="30" height="20" as="geometry" />
        </mxCell>
        <mxCell id="XAyofpOCQ_-r-m8X8qwo-5" value="нет" style="text;html=1;align=center;verticalAlign=middle;whiteSpace=wrap;rounded=0;" parent="1" vertex="1">
          <mxGeometry x="300" y="1233" width="30" height="20" as="geometry" />
        </mxCell>
        <mxCell id="FeARhktQURniAVBQVXLe-1" value="ЗАДАЧА №63&lt;div&gt;Подсчитайте сумму максимумов каждого столбца заданной матрицы.&lt;br&gt;&lt;/div&gt;" style="text;html=1;align=center;verticalAlign=middle;whiteSpace=wrap;rounded=0;" parent="1" vertex="1">
          <mxGeometry x="325" y="-50" width="220" height="30" as="geometry" />
        </mxCell>
        <mxCell id="4gXkacGV4kyteCz7RLPr-9" style="edgeStyle=orthogonalEdgeStyle;rounded=0;orthogonalLoop=1;jettySize=auto;html=1;" parent="1" source="4gXkacGV4kyteCz7RLPr-1" target="4gXkacGV4kyteCz7RLPr-8" edge="1">
          <mxGeometry relative="1" as="geometry" />
        </mxCell>
        <mxCell id="4gXkacGV4kyteCz7RLPr-1" value="Цикл 0&lt;div&gt;i &amp;gt; rows&lt;/div&gt;" style="shape=loopLimit;whiteSpace=wrap;html=1;" parent="1" vertex="1">
          <mxGeometry x="175" y="180" width="140" height="60" as="geometry" />
        </mxCell>
        <mxCell id="4gXkacGV4kyteCz7RLPr-17" style="edgeStyle=orthogonalEdgeStyle;rounded=0;orthogonalLoop=1;jettySize=auto;html=1;entryX=0.5;entryY=0;entryDx=0;entryDy=0;" parent="1" source="4gXkacGV4kyteCz7RLPr-2" target="4gXkacGV4kyteCz7RLPr-16" edge="1">
          <mxGeometry relative="1" as="geometry" />
        </mxCell>
        <mxCell id="4gXkacGV4kyteCz7RLPr-2" value="Цикл 0.1" style="shape=loopLimit;whiteSpace=wrap;html=1;direction=west;" parent="1" vertex="1">
          <mxGeometry x="175" y="570" width="140" height="60" as="geometry" />
        </mxCell>
        <mxCell id="4gXkacGV4kyteCz7RLPr-12" style="edgeStyle=orthogonalEdgeStyle;rounded=0;orthogonalLoop=1;jettySize=auto;html=1;" parent="1" source="4gXkacGV4kyteCz7RLPr-3" target="4gXkacGV4kyteCz7RLPr-11" edge="1">
          <mxGeometry relative="1" as="geometry" />
        </mxCell>
        <mxCell id="4gXkacGV4kyteCz7RLPr-3" value="Цикл 0.1&lt;div&gt;j &amp;gt; columns&lt;/div&gt;" style="shape=loopLimit;whiteSpace=wrap;html=1;" parent="1" vertex="1">
          <mxGeometry x="175" y="341" width="140" height="60" as="geometry" />
        </mxCell>
        <mxCell id="4gXkacGV4kyteCz7RLPr-7" style="edgeStyle=orthogonalEdgeStyle;rounded=0;orthogonalLoop=1;jettySize=auto;html=1;" parent="1" source="4gXkacGV4kyteCz7RLPr-5" target="4gXkacGV4kyteCz7RLPr-1" edge="1">
          <mxGeometry relative="1" as="geometry" />
        </mxCell>
        <mxCell id="4gXkacGV4kyteCz7RLPr-5" value="i := 1" style="rounded=0;whiteSpace=wrap;html=1;" parent="1" vertex="1">
          <mxGeometry x="175" y="100" width="140" height="60" as="geometry" />
        </mxCell>
        <mxCell id="4gXkacGV4kyteCz7RLPr-10" style="edgeStyle=orthogonalEdgeStyle;rounded=0;orthogonalLoop=1;jettySize=auto;html=1;" parent="1" source="4gXkacGV4kyteCz7RLPr-8" target="4gXkacGV4kyteCz7RLPr-3" edge="1">
          <mxGeometry relative="1" as="geometry" />
        </mxCell>
        <mxCell id="4gXkacGV4kyteCz7RLPr-8" value="j := 1" style="rounded=0;whiteSpace=wrap;html=1;" parent="1" vertex="1">
          <mxGeometry x="175" y="260" width="140" height="60" as="geometry" />
        </mxCell>
        <mxCell id="4gXkacGV4kyteCz7RLPr-14" style="edgeStyle=orthogonalEdgeStyle;rounded=0;orthogonalLoop=1;jettySize=auto;html=1;" parent="1" source="4gXkacGV4kyteCz7RLPr-11" target="4gXkacGV4kyteCz7RLPr-13" edge="1">
          <mxGeometry relative="1" as="geometry" />
        </mxCell>
        <mxCell id="4gXkacGV4kyteCz7RLPr-11" value="Ввод matrix[ i , j ]" style="shape=parallelogram;perimeter=parallelogramPerimeter;whiteSpace=wrap;html=1;fixedSize=1;" parent="1" vertex="1">
          <mxGeometry x="165" y="420" width="160" height="50" as="geometry" />
        </mxCell>
        <mxCell id="4gXkacGV4kyteCz7RLPr-15" style="edgeStyle=orthogonalEdgeStyle;rounded=0;orthogonalLoop=1;jettySize=auto;html=1;" parent="1" source="4gXkacGV4kyteCz7RLPr-13" target="4gXkacGV4kyteCz7RLPr-2" edge="1">
          <mxGeometry relative="1" as="geometry" />
        </mxCell>
        <mxCell id="4gXkacGV4kyteCz7RLPr-13" value="j += 1" style="rounded=0;whiteSpace=wrap;html=1;" parent="1" vertex="1">
          <mxGeometry x="175" y="490" width="140" height="60" as="geometry" />
        </mxCell>
        <mxCell id="4gXkacGV4kyteCz7RLPr-20" style="edgeStyle=orthogonalEdgeStyle;rounded=0;orthogonalLoop=1;jettySize=auto;html=1;entryX=0.5;entryY=1;entryDx=0;entryDy=0;" parent="1" source="4gXkacGV4kyteCz7RLPr-16" target="4gXkacGV4kyteCz7RLPr-19" edge="1">
          <mxGeometry relative="1" as="geometry" />
        </mxCell>
        <mxCell id="4gXkacGV4kyteCz7RLPr-16" value="i += 1" style="rounded=0;whiteSpace=wrap;html=1;" parent="1" vertex="1">
          <mxGeometry x="175" y="650" width="140" height="60" as="geometry" />
        </mxCell>
        <mxCell id="4gXkacGV4kyteCz7RLPr-21" style="edgeStyle=orthogonalEdgeStyle;rounded=0;orthogonalLoop=1;jettySize=auto;html=1;" parent="1" source="4gXkacGV4kyteCz7RLPr-19" target="78LkOsHNN-HIl_B3-NgD-5" edge="1">
          <mxGeometry relative="1" as="geometry" />
        </mxCell>
        <mxCell id="4gXkacGV4kyteCz7RLPr-19" value="Цикл 0" style="shape=loopLimit;whiteSpace=wrap;html=1;direction=west;" parent="1" vertex="1">
          <mxGeometry x="175" y="732" width="140" height="60" as="geometry" />
        </mxCell>
        <mxCell id="4gXkacGV4kyteCz7RLPr-23" value="" style="endArrow=none;dashed=1;html=1;rounded=0;" parent="1" target="4gXkacGV4kyteCz7RLPr-24" edge="1">
          <mxGeometry width="50" height="50" relative="1" as="geometry">
            <mxPoint x="315" y="445" as="sourcePoint" />
            <mxPoint x="390" y="450" as="targetPoint" />
          </mxGeometry>
        </mxCell>
        <mxCell id="4gXkacGV4kyteCz7RLPr-24" value="" style="shape=partialRectangle;whiteSpace=wrap;html=1;bottom=1;right=1;left=1;top=0;fillColor=none;routingCenterX=-0.5;rotation=90;" parent="1" vertex="1">
          <mxGeometry x="348.75" y="440" width="52.5" height="10" as="geometry" />
        </mxCell>
        <mxCell id="4gXkacGV4kyteCz7RLPr-25" value="Ввод элементов матрицы" style="text;html=1;align=left;verticalAlign=middle;whiteSpace=wrap;rounded=0;" parent="1" vertex="1">
          <mxGeometry x="380" y="430" width="230" height="30" as="geometry" />
        </mxCell>
      </root>
    </mxGraphModel>
  </diagram>
</mxfile>
